<svg height="480pt" viewBox="0 0 480 480" width="480pt" xmlns="http://www.w3.org/2000/svg"><path d="m480 240c0 132.546875-107.453125 240-240 240s-240-107.453125-240-240 107.453125-240 240-240 240 107.453125 240 240zm0 0" fill="#ffde55"/><path d="m400 224h-144v-144c0-8.835938-7.164062-16-16-16s-16 7.164062-16 16v144h-144c-8.835938 0-16 7.164062-16 16s7.164062 16 16 16h144v144c0 8.835938 7.164062 16 16 16s16-7.164062 16-16v-144h144c8.835938 0 16-7.164062 16-16s-7.164062-16-16-16zm0 0" fill="#ff5023"/></svg>