<svg id="Capa_1" enable-background="new 0 0 512 512" height="512" viewBox="0 0 512 512" width="512" xmlns="http://www.w3.org/2000/svg"><g><path d="m459.5 211-30 45 30 45h30c8.284 0 15-6.716 15-15v-60c0-8.284-6.716-15-15-15z" fill="#3b88f5"/><path d="m459.5 211h-158.5v-188.5c0-8.284-6.716-15-15-15h-60c-8.284 0-15 6.716-15 15v188.5h-188.5c-8.284 0-15 6.716-15 15v60c0 8.284 6.716 15 15 15h188.5v188.5c0 8.284 6.716 15 15 15h60c8.284 0 15-6.716 15-15v-188.5h158.5c8.284 0 15-6.716 15-15v-60c0-8.284-6.716-15-15-15z" fill="#28abfa"/><path d="m489.5 203.5h-181v-181c0-12.406-10.094-22.5-22.5-22.5h-60c-12.407 0-22.5 10.094-22.5 22.5v181h-181c-12.407 0-22.5 10.094-22.5 22.5v60c0 12.406 10.093 22.5 22.5 22.5h15c4.142 0 7.5-3.357 7.5-7.5s-3.358-7.5-7.5-7.5h-15c-4.136 0-7.5-3.364-7.5-7.5v-60c0-4.136 3.364-7.5 7.5-7.5h188.5c4.142 0 7.5-3.357 7.5-7.5v-188.5c0-4.136 3.364-7.5 7.5-7.5h60c4.136 0 7.5 3.364 7.5 7.5v188.5c0 4.143 3.357 7.5 7.5 7.5h188.5c4.136 0 7.5 3.364 7.5 7.5v60c0 4.136-3.364 7.5-7.5 7.5h-188.5c-4.143 0-7.5 3.357-7.5 7.5v188.5c0 4.136-3.364 7.5-7.5 7.5h-60c-4.136 0-7.5-3.364-7.5-7.5v-188.5c0-4.143-3.358-7.5-7.5-7.5h-143.5c-4.142 0-7.5 3.357-7.5 7.5s3.358 7.5 7.5 7.5h136v181c0 12.406 10.093 22.5 22.5 22.5h60c12.406 0 22.5-10.094 22.5-22.5v-181h181c12.406 0 22.5-10.094 22.5-22.5v-60c0-12.406-10.094-22.5-22.5-22.5z"/></g></svg>