<?xml version="1.0" encoding="iso-8859-1"?>
<!-- Generator: Adobe Illustrator 16.0.0, SVG Export Plug-In . SVG Version: 6.00 Build 0)  -->
<!DOCTYPE svg PUBLIC "-//W3C//DTD SVG 1.1//EN" "http://www.w3.org/Graphics/SVG/1.1/DTD/svg11.dtd">
<svg version="1.1" id="Capa_1" xmlns="http://www.w3.org/2000/svg" xmlns:xlink="http://www.w3.org/1999/xlink" x="0px" y="0px"
	 width="38.755px" height="38.755px" viewBox="0 0 38.755 38.755" style="enable-background:new 0 0 38.755 38.755;"
	 xml:space="preserve">
<g>
	<path d="M33.706,0.788c-1.223-1.119-3.12-1.035-4.239,0.186l-8.062,8.805c-1.118,1.222-2.934,1.222-4.052,0L9.29,0.974
		C8.17-0.248,6.271-0.332,5.05,0.788L2.119,3.472C0.896,4.591,0.812,6.489,1.932,7.71l8.656,9.455c1.119,1.222,1.119,3.203,0,4.426
		l-8.656,9.455c-1.119,1.222-1.035,3.118,0.187,4.237l2.932,2.685c1.222,1.118,3.12,1.034,4.239-0.188l8.062-8.805
		c1.119-1.222,2.934-1.222,4.052,0l8.062,8.805c1.119,1.222,3.018,1.306,4.239,0.188l2.932-2.685
		c1.222-1.119,1.306-3.017,0.187-4.237l-8.655-9.454c-1.118-1.223-1.118-3.205,0-4.427l8.655-9.454
		c1.119-1.222,1.035-3.119-0.187-4.238L33.706,0.788z"/>
</g>
<g>
</g>
<g>
</g>
<g>
</g>
<g>
</g>
<g>
</g>
<g>
</g>
<g>
</g>
<g>
</g>
<g>
</g>
<g>
</g>
<g>
</g>
<g>
</g>
<g>
</g>
<g>
</g>
<g>
</g>
</svg>
