<svg height="511.99998pt" viewBox="1 1 511.99998 511.99998" width="511.99998pt" xmlns="http://www.w3.org/2000/svg"><path d="m496 256c0 132.546875-107.453125 240-240 240s-240-107.453125-240-240 107.453125-240 240-240 240 107.453125 240 240zm0 0" fill="#ffeb99"/><g fill="#3e3d42"><path d="m256 0c-141.386719 0-256 114.613281-256 256s114.613281 256 256 256 256-114.613281 256-256c-.167969-141.316406-114.683594-255.832031-256-256zm0 480c-123.710938 0-224-100.289062-224-224s100.289062-224 224-224 224 100.289062 224 224c-.132812 123.65625-100.34375 223.867188-224 224zm0 0"/><path d="m416 240h-144v-144c0-8.835938-7.164062-16-16-16s-16 7.164062-16 16v144h-144c-8.835938 0-16 7.164062-16 16s7.164062 16 16 16h144v144c0 8.835938 7.164062 16 16 16s16-7.164062 16-16v-144h144c8.835938 0 16-7.164062 16-16s-7.164062-16-16-16zm0 0"/></g></svg>