<svg height="410pt" viewBox="0 0 410 410" width="410pt" xmlns="http://www.w3.org/2000/svg"><path d="m410 205c0 113.21875-91.78125 205-205 205s-205-91.78125-205-205 91.78125-205 205-205 205 91.78125 205 205zm0 0" fill="#e48e66"/><path d="m0 205c0 113.199219 91.800781 205 205 205v-410c-113.199219 0-205 91.800781-205 205zm0 0" fill="#d18162"/><path d="m310.300781 215h-216.402343c-5.519532 0-10-4.476562-10-10s4.480468-10 10-10h216.402343c5.523438 0 10 4.476562 10 10s-4.476562 10-10 10zm0 0" fill="#f8ec7d"/></svg>