<svg height="496pt" viewBox="0 0 496 496" width="496pt" xmlns="http://www.w3.org/2000/svg"><path d="m248 8c-132.546875 0-240 107.453125-240 240s107.453125 240 240 240 240-107.453125 240-240-107.453125-240-240-240zm0 392v-152zm0 0" fill="#ffda44"/><g fill="#231f20"><path d="m248 496c136.964844 0 248-111.035156 248-248s-111.035156-248-248-248-248 111.035156-248 248c.15625 136.902344 111.097656 247.84375 248 248zm0-480c128.128906 0 232 103.871094 232 232s-103.871094 232-232 232-232-103.871094-232-232c.144531-128.070312 103.929688-231.855469 232-232zm0 0"/><path d="m96 256h144v144c0 4.417969 3.582031 8 8 8s8-3.582031 8-8v-144h144c4.417969 0 8-3.582031 8-8s-3.582031-8-8-8h-144v-144c0-4.417969-3.582031-8-8-8s-8 3.582031-8 8v144h-144c-4.417969 0-8 3.582031-8 8s3.582031 8 8 8zm0 0"/></g></svg>