<svg height="512pt" viewBox="0 0 512 512" width="512pt" xmlns="http://www.w3.org/2000/svg"><path d="m511 451.117188c0 11.027343-8.933594 19.960937-19.960938 19.960937-11.023437 0-19.960937-8.933594-19.960937-19.960937 0-11.003907-8.953125-19.960938-19.960937-19.960938-11.003907 0-19.960938 8.957031-19.960938 19.960938 0 11.007812 8.957031 19.960937 19.960938 19.960937 11.027343 0 19.960937 8.9375 19.960937 19.960937 0 11.027344-8.933594 19.960938-19.960937 19.960938-25.644532 0-47.574219-16.210938-56.085938-38.921875h-179.453125c-.847656 0-1.675781-.070313-2.496094-.171875-.816406.101562-1.644531.171875-2.492187.171875-11.027344 0-19.960938-8.9375-19.960938-19.960937 0-11.007813-8.957031-19.960938-19.960937-19.960938-11.007813 0-19.960938 8.953125-19.960938 19.960938 0 11.007812 8.953125 19.960937 19.960938 19.960937 11.023437 0 19.960937 8.9375 19.960937 19.960937 0 11.023438-8.9375 19.960938-19.960937 19.960938-33.019531 0-59.882813-26.863281-59.882813-59.882812 0-33.019532 26.863282-59.882813 59.882813-59.882813 11.621093 0 22.472656 3.339844 31.664062 9.089844l115.882813-125.273438c-1.207032-2.117187-2.292969-4.308593-3.238282-6.578125h-109.378906c-11.023437 0-19.960937-8.933594-19.960937-19.960937 0-11.023438 8.9375-19.960938 19.960937-19.960938h107.257813c7.335937-24.777343 30.292969-42.914062 57.421875-42.914062 33.019531 0 59.882812 26.863281 59.882812 59.882812 0 11.023438-8.9375 19.960938-19.960937 19.960938-11.023438 0-19.960938-8.9375-19.960938-19.960938 0-11.007812-8.953125-19.960937-19.960937-19.960937-11.007813 0-19.960938 8.953125-19.960938 19.960937 0 11.003907 8.953125 19.960938 19.960938 19.960938 11.023437 0 19.960937 8.9375 19.960937 19.960937 0 11.023438-8.9375 19.960938-19.960937 19.960938-7.730469 0-15.113282-1.488282-21.902344-4.167969l-120.179688 129.921875h166.136719c7.953125-23.75 30.394531-40.921875 56.785157-40.921875 33.019531 0 59.882812 26.863281 59.882812 59.882813zm-398.300781-181.644532h-5.828125c-6.851563 0-13.222656-3.511718-16.878906-9.308594-10.160157-16.101562-23.179688-30.378906-35.769532-44.191406-26.636718-29.214844-54.1796872-59.425781-54.222656-106.125.0703125-60.589844 49.320312-109.847656 109.785156-109.847656s109.714844 49.257812 109.785156 109.804688c-.042968 46.742187-27.585937 76.953124-54.222656 106.167968-12.589844 13.8125-25.605468 28.089844-35.769531 44.191406-3.65625 5.796876-10.027344 9.308594-16.878906 9.308594zm-2.914063-50.3125c8.425782-10.738281 17.335938-20.511718 26.0625-30.082031 24.453125-26.828125 43.773438-48.015625 43.800782-79.269531-.042969-38.515625-31.382813-69.886719-69.863282-69.886719-38.476562 0-69.820312 31.371094-69.863281 69.929687.03125 31.210938 19.347656 52.398438 43.800781 79.226563 8.726563 9.570313 17.636719 19.34375 26.0625 30.082031zm.53125-140.3125c-17.03125 0-30.882812 13.878906-30.882812 30.9375s13.851562 30.941406 30.882812 30.941406c17.027344 0 30.882813-13.882812 30.882813-30.941406s-13.855469-30.9375-30.882813-30.9375zm0 0"/></svg>