<?xml version="1.0" encoding="utf-8"?>
<!-- Generator: Adobe Illustrator 23.1.0, SVG Export Plug-In . SVG Version: 6.00 Build 0)  -->
<svg version="1.1" id="Layer_1" xmlns="http://www.w3.org/2000/svg" xmlns:xlink="http://www.w3.org/1999/xlink" x="0px" y="0px"
	 viewBox="0 0 1047 698" style="enable-background:new 0 0 1047 698;" xml:space="preserve">
<style type="text/css">
	.st0{fill:#E25B4B;}
	.st1{fill:#2F9399;stroke:#2F9399;stroke-miterlimit:10;}
	.st2{fill:#E25B4B;stroke:#E25B4B;stroke-miterlimit:10;}
	.st3{fill:#829BB7;stroke:#829BB7;stroke-miterlimit:10;}
</style>
<g>
	<path class="st0" d="M636.6,394.7c0,1.5,0,2.8,0,4.2c0,16.7,0,33.4,0,50.2c0,2.8-0.6,5.3-1.8,7.7c-2.3,4.7-6.2,7.1-11.4,7.3
		c-2,0.1-4,0.1-5.9-0.3c-5.9-1.3-10.2-6.7-10.6-12.8c0-0.7,0-1.4,0-2.1c0-44.6,0-89.2,0-133.8c0-8.8,7.1-15.5,15.9-15.1
		c2.8,0.1,5.3,1.2,7.3,3c2,1.8,3.6,1.7,5.9,0.6c5.6-2.7,11.5-4,17.9-3.7c5.3,0.3,10.6-0.3,15.9,1.2c10.4,3,18.2,9.5,24.8,17.7
		c6,7.5,9.2,16.1,8.9,25.8c-0.2,5.3-0.3,10.7-0.7,16c-0.1,1.8-0.7,3.7-1.4,5.4c-6,14.7-16.2,25-31.4,29.9c-2.7,0.9-5.7,1-8.5,1.3
		c-2,0.2-3.9,0-5.9,0.1c-5.6,0.3-11.1-0.2-16.3-2.5c-0.4-0.2-0.9-0.2-1.3-0.3C637.7,394.4,637.5,394.5,636.6,394.7z M674.1,348.4
		c0.1,0,0.2,0,0.3,0c-0.3-2.7-0.1-5.7-0.9-8.2c-2-6-9-10.6-15.3-10.6c-1.6,0-3.3,0.1-4.9,0c-7.6-0.4-12,4.2-15.5,9.9
		c-1.7,2.8-1.6,15.1-0.1,18.1c2.1,4,5.2,7.1,9.2,9.3c2.5,1.4,14.7,1.5,17.1,0c5.9-3.7,10.9-8.1,10.2-16
		C674,350.1,674.1,349.2,674.1,348.4z"/>
	<path class="st0" d="M376.2,329.6c-1.8,0-2.9,0-4.1,0c-4.9,0-9.8,0-14.6,0c-10.5,0-17.5-9.7-14.2-19.8c1.8-5.5,7.4-9.7,13.1-9.7
		c5.1,0,10.2,0,15.3,0c1.3,0,2.5-0.1,4.2-0.2c0.1-1.4,0.3-2.6,0.3-3.9c0-5.6,0-11.2,0-16.7c0-6,1.1-11.8,3.1-17.4
		c5.5-14.7,16.6-23.1,31.2-27.3c5.3-1.5,10.8-1.7,16.2-1.4c5.9,0.4,11.9,7.1,12.4,13.6c0.5,7.5-4.4,13.6-12.5,15.1
		c-3.1,0.6-6.2,1-9.3,1.5c-0.9,0.2-1.9,0.3-2.6,0.8c-5.1,3.4-9.1,7.6-9,14.3c0,5.9,0,11.9,0,17.8c0,3.6,0.2,3.8,3.7,3.8
		c5.1,0,10.2,0,15.3,0c7.6,0,13.5,5.5,14,13.1c0.6,8.1-2.9,13.3-10.6,15.9c-1.2,0.4-2.5,0.5-3.7,0.5c-4.9,0.1-9.8,0-14.6,0
		c-1.1,0-2.3,0.1-3.7,0.2c-0.1,1.7-0.3,3.1-0.3,4.6c0,16.2,0,32.3,0,48.5c0,6.7-4.5,12.5-10.8,14.1c-9.8,2.5-18.7-4.4-18.7-14.6
		c0-16,0-32.1,0-48.1C376.2,332.9,376.2,331.5,376.2,329.6z"/>
	<path class="st0" d="M592.7,362.6c0,6.9,0.1,13.7,0,20.6c-0.1,6-3.6,10-8.4,12.7c-4.6,2.6-9.4,2-13.8-0.9c-0.7-0.5-1.3-1-1.9-1.5
		c-0.9-0.8-1.8-1.1-2.8-0.4c-0.5,0.3-1.1,0.5-1.6,0.7c-5.8,2.6-11.8,4.1-18.2,3.7c-5.3-0.3-10.6,0.3-15.9-1.2
		c-10.4-3-18.2-9.5-24.8-17.8c-6.1-7.6-9.2-16.3-8.9-26.1c0.1-4.9,0.2-9.7,0.6-14.6c0.2-2.3,0.7-4.6,1.6-6.7
		c6.1-14.6,16.4-24.8,31.7-29.6c2.7-0.8,5.7-1,8.6-1.2c2.8-0.2,5.6,0.1,8.4-0.1c10.9-0.5,20.2,3.4,28.3,10.5
		c6.3,5.6,11.5,12.1,14.8,20c1.7,4.1,2.6,8.4,2.6,12.9C592.6,349.8,592.7,356.2,592.7,362.6z M563.2,348.6c0.1,0,0.2,0,0.3,0
		c-0.4-3,0-6.3-1.3-8.8c-3.1-6.1-7.8-10.4-15.2-10.2c-1.5,0-3,0.1-4.5,0c-7.6-0.5-12,4-15.6,9.8c-1.8,3-1.7,15.3-0.1,18.4
		c2.1,3.9,5.1,6.9,8.9,9.1c2.6,1.5,14.9,1.6,17.4,0c5.8-3.8,10.8-8.2,10-16.1C563.1,350,563.2,349.3,563.2,348.6z"/>
	<path class="st0" d="M450.8,314.9c0-22.3,0-44.6,0-66.9c0-3.1,0.7-6,2.3-8.6c0.4-0.7,0.9-1.3,1.4-2c4.8-6.1,19.7-6.5,23.8,3
		c1.1,2.5,1.9,5.3,1.9,8c0.1,44.5,0.1,89,0,133.5c0,2.5-0.7,5.1-1.6,7.4c-1.6,4-4.6,6.7-8.9,7.5c-8.8,1.6-15.7-0.9-18.4-9.9
		c-0.5-1.5-0.5-3.2-0.5-4.8C450.8,359.7,450.8,337.3,450.8,314.9z"/>
	<path class="st0" d="M267.8,362.6c0-5.8-0.1-11.6,0-17.4c0.5-24.2,15.9-39.6,37.8-44.3c3.5-0.7,7.1-0.7,10.7-0.8
		c6.6-0.2,10.7,3.6,13.3,9c3.9,8.1-1.1,17.8-9.9,19.8c-3.4,0.7-6.9,1.2-10.3,1.9c-7,1.5-12.3,7.9-12.3,15.2c0,11.9,0,23.7,0,35.6
		c0,1.9-0.2,4-0.7,5.8c-2,6.6-6.5,9.9-13.4,9.9c-9.4,0.1-15-5.4-15.1-14.8c0-0.2,0-0.5,0-0.7C267.8,375.4,267.8,369,267.8,362.6z"/>
</g>
<circle class="st1" cx="735" cy="318.9" r="19.6"/>
<circle class="st2" cx="750.2" cy="318.9" r="19.6"/>
<circle class="st3" cx="766.2" cy="318.9" r="19.6"/>
</svg>
