<?xml version="1.0" encoding="iso-8859-1"?>
<!-- Generator: Adobe Illustrator 19.0.0, SVG Export Plug-In . SVG Version: 6.00 Build 0)  -->
<svg version="1.1" id="Capa_1" xmlns="http://www.w3.org/2000/svg" xmlns:xlink="http://www.w3.org/1999/xlink" x="0px" y="0px"
	 viewBox="0 0 512 512" style="enable-background:new 0 0 512 512;" xml:space="preserve">
<g>
	<g>
		<g>
			<path d="M365.714,128c-7.392-0.004-14.058,4.445-16.891,11.273c-2.832,6.828-1.273,14.689,3.951,19.919l0.02,0.013l0.013,0.02
				c5.857,5.842,14.906,7.023,22.066,2.88s10.646-12.577,8.5-20.566C381.229,133.551,373.986,127.998,365.714,128z"/>
			<path d="M159.205,352.795l-0.013-0.02c-7.156-7.138-18.743-7.127-25.885,0.025s-7.139,18.738,0.008,25.885
				c7.147,7.147,18.734,7.151,25.885,0.008c7.152-7.142,7.163-18.729,0.025-25.885L159.205,352.795z"/>
			<path d="M256,0C114.615,0,0,114.615,0,256s114.615,256,256,256s256-114.615,256-256C511.841,114.681,397.319,0.159,256,0z
				 M365.714,182.857c-6.508-0.035-12.885-1.825-18.46-5.182L177.675,347.254c3.357,5.575,5.148,11.953,5.182,18.46
				c0,20.198-16.374,36.571-36.571,36.571c-20.198,0-36.571-16.374-36.571-36.571s16.374-36.571,36.571-36.571
				c6.508,0.035,12.885,1.825,18.46,5.182l169.579-169.579c-3.357-5.575-5.148-11.953-5.182-18.46
				c0-20.198,16.374-36.571,36.571-36.571s36.571,16.374,36.571,36.571C402.286,166.484,385.912,182.857,365.714,182.857z"/>
		</g>
	</g>
</g>
<g>
</g>
<g>
</g>
<g>
</g>
<g>
</g>
<g>
</g>
<g>
</g>
<g>
</g>
<g>
</g>
<g>
</g>
<g>
</g>
<g>
</g>
<g>
</g>
<g>
</g>
<g>
</g>
<g>
</g>
</svg>
